# xmcd
#
# Track frame offsets:
#	150
#	9915
#	14835
#	22026
#	31995
#	50804
#	64092
#	77217
#	90724
#	102597
#	115397
#	133349
#	144879
#	155553
#	168365
#	181186
#
# Disc length: 2646 seconds
#
# Revision: 1
# Processed by: cddbd v1.5.1PL0 Copyright (c) Steve Scherf et al.
# Submitted via: audiograbber 1.83.01
#
DISCID=db0a5410
DTITLE=Jack Johnson - On and On
DYEAR=1900
DGENRE=
TTITLE0=Times Like These
TTITLE1=The Horizon Has Been Defeated
TTITLE2=Traffic In The Sky
TTITLE3=Taylor
TTITLE4=Gone
TTITLE5=Cupid
TTITLE6=Wasting Time
TTITLE7=Holes To Heaven
TTITLE8=dreams Be Dreams
TTITLE9=Tomorrow Morning
TTITLE10=Fall Line
TTITLE11=Cookie Jar
TTITLE12=Rodeo Clowns
TTITLE13=coopon
TTITLE14=Mediocre Bad Guys
TTITLE15=Symbol In My Driveway
EXTD=
EXTT0=
EXTT1=
EXTT2=
EXTT3=
EXTT4=
EXTT5=
EXTT6=
EXTT7=
EXTT8=
EXTT9=
EXTT10=
EXTT11=
EXTT12=
EXTT13=
EXTT14=
EXTT15=
PLAYORDER=
